<?xml version="1.0" encoding="UTF-8" standalone="no"?>
<!-- Created with Inkscape (http://www.inkscape.org/) -->

<svg
   width="811.2"
   height="620.8"
   version="1.1"
   viewBox="0 0 811.2 620.8"
   id="svg314"
   sodipodi:docname="frasy_logo_light.svg"
   inkscape:version="1.2.1 (9c6d41e410, 2022-07-14)"
   xmlns:inkscape="http://www.inkscape.org/namespaces/inkscape"
   xmlns:sodipodi="http://sodipodi.sourceforge.net/DTD/sodipodi-0.dtd"
   xmlns="http://www.w3.org/2000/svg"
   xmlns:svg="http://www.w3.org/2000/svg"
   xmlns:rdf="http://www.w3.org/1999/02/22-rdf-syntax-ns#"
   xmlns:cc="http://creativecommons.org/ns#"
   xmlns:dc="http://purl.org/dc/elements/1.1/">
  <defs
     id="defs318" />
  <sodipodi:namedview
     id="namedview316"
     pagecolor="#000000"
     bordercolor="#666666"
     borderopacity="1.0"
     inkscape:showpageshadow="2"
     inkscape:pageopacity="0.0"
     inkscape:pagecheckerboard="0"
     inkscape:deskcolor="#d1d1d1"
     showgrid="false"
     inkscape:zoom="1.2306701"
     inkscape:cx="175.51414"
     inkscape:cy="312.8377"
     inkscape:window-width="1920"
     inkscape:window-height="1057"
     inkscape:window-x="1912"
     inkscape:window-y="-8"
     inkscape:window-maximized="1"
     inkscape:current-layer="svg314" />
  <metadata
     id="metadata310">
    <rdf:RDF>
      <cc:Work
         rdf:about="">
        <dc:format>image/svg+xml</dc:format>
        <dc:type
           rdf:resource="http://purl.org/dc/dcmitype/StillImage" />
      </cc:Work>
    </rdf:RDF>
  </metadata>
  <path
     d="m 278.34,559.92 -0.57358,-1.4338 -0.42822,-13.2 -0.4282,-13.2 1.7802,-16 3.798,-15.2 2.16,-6 2.16,-6 7.6789,-14.4 3.8438,-5.6 6.8199,-9.1782 9.9656,-10.658 17.6,-13.141 24,-14.339 28,-16.588 10.4,-6.631 14.4,-9.2456 7.7655,-7.4191 6.0189,-8.0398 8.6156,-2.727 12,-7.0653 12.231,-10.471 7.7694,-10.492 4.5659,-8.4052 4.5762,-13.03 0.76967,-5.085 0.76968,-5.085 c 14.58115,-5.25345 12.12102,2.56142 38.48501,0.60029 -10.09793,-6.98335 -5.15262,-10.95725 -37.45811,-11.80029 l -2.4677,-16.41 -5.3786,-15.05817 c 19.42357,-5.73889 25.77513,-2.15624 47.14489,-2.02401 -16.86528,-8.49515 -23.726,-10.83826 -49.35048,-10.56672 l -12.618,1.95459 4.9848,15.482 2.3773,13.632 -0.012,18.59 -1.6112,10.4 -2.5054,6.8 -2.5054,6.8 -7.9284,12 -9.0375,9.3288 -8.8,6.6861 -4.6013,2.9539 -0.68711,-1.0844 -0.68711,-1.0844 -0.0122,-0.61787 -0.0122,-0.61788 -6.594,-7.1537 -5.006,-3.0432 -12.8,-3.4761 -16,-0.86729 -14.4,1.7387 -24.8,3.9513 -19.2,4.0442 -18.4,4.1646 -16.8,3.8917 -18.4,4.0585 -9.6,1.4949 -1.8531,0.0322 5.8531,11.405 v 13.795 l -0.67376,2.4 -0.67374,2.4 -4.4351,-13.167 -6.4455,-8.537 -16.014,-8.4192 -9.3254,-9.7086 -4.6591,10.014 -0.40257,5.6264 -0.40256,5.6264 -2.4752,-4.6356 -0.32802,-7.2 -0.32803,-7.2 1.7475,-5.2 1.7475,-5.2 6.264,-11.39 6.3384,-7.0103 0.0876,7.2 0.96476,3.6 h 1.1093 l 6.8374,-10.325 8.9464,-8.8753 h 1.2056 l 0.99285,4.4365 0.99285,4.4365 1.307,0.80776 5.1639,-6.0808 9.1662,-9.364 2.0419,0.68062 2.3659,9.0834 1.6842,-0.0202 7.7594,-8.8471 8.7956,-6.4977 0.6745,0.68248 0.67449,0.6825 0.24799,4 0.248,4 4,-0.24599 18.4,-5.0061 18.4,-0.94179 13.6,1.8118 4.2036,0.93107 2.419,-13.126 -2.177,-10.405 -3.9325,-6.7103 -7.4257,-6.8447 -10.687,-5.0082 -8.8,-0.0296 -7.2405,3.4508 -8.7595,6.0095 -9.6919,9.7143 -5.8016,7.1732 -1.0468,-1.0468 -0.4473,-4.9328 -0.44728,-4.9328 -4.3623,7.0086 -8.3759,7.5307 h -1.9733 l 0.62548,-3.8 0.62549,-3.8 0.0477,-1 0.0473,-1 -1.2,0.0476 -2.7569,4.8135 -2.7569,4.8135 -7.6176,7.1254 h -2.4686 v -9.5056 l -1.6,-0.98885 v 1.8792 l -7.3532,11.061 -6.2468,3.1869 -0.11196,-0.21626 -0.11195,-0.21626 -0.88805,-7.4728 -0.88804,-7.4728 -6.4,10.092 -10.42,10.854 h -1.98 v -13.333 l -0.93429,-0.93429 -8.9379,3.0751 -6.5278,3.8498 -2.1145,2.2714 -2.1146,2.2714 -4.8204,9.6 -0.93752,-4 -0.71568,-3.2 -0.71567,-3.2 -2.5254,-9.2 -2.5254,-9.2 -6.5129,-19.2 -7.7454,-15.6 h 4.007 l 5.1205,2.618 6.0046,5.382 h 1.5509 l 3.5566,-8.4 6.2352,-11.956 4.9243,-6.4442 7.3284,-7.7005 9.0139,-5.5022 5.3861,-1.0419 -5.8088,5.4447 -4.1912,8.3468 v 8.8532 h 0.44762 l 11.952,-11.704 14.4,-9.6165 14.4,-8.033 16.8,-8.0406 12,-5.104 8.8,-3.669 7.424,-2.6984 7.2246,-4.7854 2.1253,-2.7864 2.1253,-2.7864 3.9,-8.5186 0.52023,-7.329 0.52024,-7.3291 -3.5198,-0.0946 -3.5198,-0.0947 -4.8,-1.0422 12.8,-3.7921 13.6,-5.4541 11.943,-6.5521 8.0566,-5.6177 4,-3.0826 5.6041,-5.0699 11.398,-9.109 16.598,-11.012 20.8,-11.388 16.8,-7.4071 3.2,-1.4385 11.2,-4.177 15.2,-4.4971 16,-3.2796 11.2,-1.0893 -0.81381,0.87749 -13.586,5.5366 -16.503,7.5249 -15.497,8.0454 -12.644,8.8949 -23.756,22.275 v 1.3016 l 22.8,-9.2551 14.4,-4.8566 16,-4.7603 10.4,-2.626 16,-3.2291 21.6,-3.1641 15.456,-3.8712 14.144,-4.9847 12,-5.7529 15.714,-10.185 16.035,-15.56 8.8022,-11.695 8.3139,-16.318 1.6238,-4.8 2.7111,11.796 -0.0173,6.1019 -0.0173,6.1019 -1.5288,6.913 -1.5288,6.913 -5.5378,10.974 -9.5813,12.8 -14.235,13.6 -3.1538,2.4282 -8,5.4043 -12.996,6.8688 -12.604,4.7435 -15.019,4.1975 -11.381,1.5175 -30.4,4.1834 -14.439,4.6162 -1.5807,1.1949 -1.5807,1.1949 3.5065,0.0508 34.094,-4.2468 69.6,-0.23384 12.8,-2.0524 13.6,-3.1439 13.215,-4.6983 6.0956,-3.1098 8.2892,-6.5522 v 2.6048 l -4.0862,8.1354 -5.4044,7.297 -10.109,9.8087 -8.7063,5.8785 -11.578,5.5687 -11.716,4.0183 -19.2,3.773 -10.4,1.0278 -43.2,1.4274 -5.6,1.5424 -4.7774,1.0805 2.7131,1.5183 19.664,3.8782 13.6,1.6536 19.2,1.757 14.493,2.9684 12.459,5.6777 11.183,7.4346 11.464,11.477 8.5448,12.38 7.684,16.329 1.6972,5.5218 1.6972,5.5218 -0.22778,0.22778 -0.22778,0.22777 -9.5676,-8.7727 -10.4,-8.5072 -10.4,-7.181 -12.8,-7.2026 -12.8,-4.8603 -11.704,-1.9375 -0.65864,0.65864 13.07,9.5036 16.262,16 8.0247,10.4 6.5727,10.774 5.4049,10.826 4.9104,13.6 1.6802,7.2783 1.6802,7.2783 0.77277,6.7217 0.77278,6.7217 -4.9e-4,9.2 -5e-4,9.2 -0.81555,7.2 -0.81556,7.2 -3.9801,18.941 -1.654,5.3296 -1.654,5.3296 -2.293,6.4 -2.293,6.4 -4.8142,12.653 -1.8225,1.7474 0.49943,-4 0.49942,-4 0.45648,-20.082 0.45647,-20.082 -2.0462,-11.137 -2.0462,-11.137 -2.0903,-5.5807 -2.0903,-5.5807 -1.4838,-1.52 -0.154,0.72 -1.296,39.2 -4.0448,25.6 -4.1993,16.8 -3.9572,11.2 -4.3106,10.4 -3.1302,5.6 -3.1302,5.6 -4.8449,6.4 -9.7329,10.134 -6.8,4.7426 v -1.4757 l 2.5263,-7.0012 4.5331,-15.2 4.0535,-16 0.8851,-4.8 1.5283,-18.4 -0.57713,-2.7079 -0.57714,-2.7079 -3.8237,11.016 -4.7266,9.6 -10.52,16 -21.701,21.602 -16.8,11.117 -5.6,3.5479 -15.216,7.1936 -8.7837,3.4323 -13.6,4.9065 -9.6,2.7902 -19.2,5.8604 -16.8,4.8868 -9.6,2.8949 -16.8,5.133 -20.8,7.2786 -11.717,5.3565 h -0.51059 l -13.373,7.5171 -13.562,9.6829 -15.761,15.114 -9.688,12.086 -1.1922,0.46763 -0.57358,-1.4338 z m 102.38,-339.74 4,-1.0864 9.3169,-4.1698 -1.0113,-1.6364 h -2.8898 l -3.8158,-2.9609 -10.095,-4.5004 -12.305,-0.1387 -5.6,3.2514 -2,3.8518 -2,3.8518 -4.4,2.2961 v 1.4764 l 5.2,0.85001 4.8,0.69075 16.8,-0.6894 z"
     stroke-width="0.8"
     id="path312"
     sodipodi:nodetypes="ccccccccccccccccccccccccccccccccccccccccccccccccccccccccccccccccccccccccccccccccccccccccccccccccccccccccccccccccccccccccccccccccccccccccccccccccccccccccccccccccccccccccccccccccccccccccccccccccccccccccccccccccccccccccccccccccccccccccccccccccccccccccccccccccccccccccccccccccccccccccccccccccccccccccccccccccccccccccccccccccccccccccccccccccccccccccccccccccccccccccccccccccc"
     style="fill:#ffffff" />
</svg>
